<svg width="97" height="55" viewBox="0 0 97 55" fill="none" xmlns="http://www.w3.org/2000/svg">
<path fill-rule="evenodd" clip-rule="evenodd" d="M48.3886 17.39L63.9708 37.0503H73.9654L73.965 0.000378322L62.832 0V18.3591L48.3886 0H37.1853V37.0503H48.3886V17.39Z" fill="#C32A2B"/>
<path fill-rule="evenodd" clip-rule="evenodd" d="M11.4542 22.6961L17.3556 22.6957C20.0092 22.6957 21.8003 23.6629 21.741 25.6861C21.6847 27.6197 20.1162 28.5116 18.0121 28.5116H11.4512L11.4542 22.6961ZM11.4542 8.55005H15.7705C18.0733 8.55005 19.7344 9.19634 19.6732 11.5824C19.6203 13.6452 17.8182 14.4423 15.7705 14.4423H11.4542V8.55005ZM0 37.0409L15.2723 37.0613L19.629 37.0503C22.7494 37.042 25.635 36.5749 28.2739 35.0385C34.1624 31.6093 34.6715 24.0692 30.3991 20.0228C28.1303 18.0204 26.6287 17.7041 25.5855 17.3892C27.0335 16.6689 28.396 15.7081 29.4429 14.4646C30.4936 13.2174 31.1524 11.3802 31.0828 9.25266C30.8323 1.60441 24.0971 0 18.7642 0H13.4464L0 0.0309947V37.0409Z" fill="#C32A2B"/>
<path fill-rule="evenodd" clip-rule="evenodd" d="M90.1368 4.40656L78.7559 15.6688V37.0503H90.1368V4.40656Z" fill="#C32A2B"/>
<path fill-rule="evenodd" clip-rule="evenodd" d="M78.7559 11.3288L90.1368 0H78.7559V11.3288Z" fill="#C32A2B"/>
<path d="M94.6004 32.8275C95.181 32.8275 95.7067 33.0629 96.0873 33.4435C96.4675 33.8249 96.7034 34.3506 96.7034 34.9304C96.7034 35.5106 96.4679 36.0359 96.0873 36.4169C95.7059 36.7982 95.1802 37.0337 94.6004 37.0337C94.0203 37.0337 93.4945 36.7979 93.1136 36.4173C92.7326 36.037 92.4971 35.5113 92.4971 34.9304C92.4971 34.3499 92.7326 33.8241 93.1132 33.4435C93.4938 33.0629 94.0195 32.8275 94.6004 32.8275ZM95.8397 33.6911C95.5226 33.3744 95.0842 33.1778 94.6004 33.1778C94.1163 33.1778 93.6778 33.3744 93.3607 33.6911C93.044 34.0082 92.8475 34.4466 92.8475 34.9304C92.8475 35.4146 93.044 35.853 93.3607 36.1697C93.6775 36.4872 94.1159 36.683 94.6004 36.683C95.085 36.683 95.523 36.4872 95.8397 36.1705C96.1568 35.8534 96.353 35.4149 96.353 34.9304C96.353 34.4462 96.1568 34.0078 95.8397 33.6911Z" fill="#C32A2B"/>
<path d="M93.7795 36.127H94.0936V35.1016H94.4977L95.2158 36.127H95.6013L94.8495 35.0759C95.2607 35.0211 95.5113 34.8049 95.5113 34.4727C95.5113 33.9084 94.969 33.8438 94.4565 33.8438H93.7795V36.127ZM94.0936 34.0955H94.5351C94.842 34.0955 95.1746 34.1435 95.1746 34.4727C95.1746 34.8499 94.7222 34.8499 94.3744 34.8499H94.0936V34.0955Z" fill="#C32A2B"/>
<path d="M0.49585 39.6737H8.18832V41.8451H5.41226V51.0886H3.16344V41.8451H0.49585V39.6737Z" fill="#3E0100"/>
<path d="M22.1359 39.6737H24.3851V51.0886H22.1359V39.6737Z" fill="#3E0100"/>
<path d="M39.1079 51.0886V39.2081H39.1234L45.467 48.2037L44.5055 47.9868L50.8335 39.2081H50.8645V51.0886H48.6153V44.2798L48.7552 45.4432L44.8932 50.9337H44.8622L40.8919 45.4432L41.2793 44.3728V51.0886H39.1079Z" fill="#3E0100"/>
<path d="M65.5873 39.6737H67.8365V51.0886H65.5873V39.6737Z" fill="#3E0100"/>
<path d="M88.6549 42.4343C88.2206 42.1966 87.7784 42.0001 87.3287 41.8451C86.8789 41.6898 86.4575 41.6123 86.0648 41.6123C85.5787 41.6123 85.1963 41.7105 84.917 41.9071C84.6376 42.1032 84.4982 42.398 84.4982 42.7911C84.4982 43.0598 84.604 43.3002 84.816 43.5122C85.0281 43.7243 85.3021 43.9129 85.6381 44.0784C85.9741 44.2436 86.3229 44.3936 86.685 44.5282C87.0157 44.6521 87.3442 44.7995 87.67 44.97C87.9957 45.1408 88.2875 45.3529 88.5461 45.6061C88.8046 45.8593 89.0113 46.1745 89.1667 46.5521C89.3216 46.9297 89.3991 47.3923 89.3991 47.9403C89.3991 48.5194 89.2494 49.0568 88.9493 49.5531C88.6496 50.0497 88.2101 50.4503 87.631 50.7553C87.052 51.0603 86.3388 51.2127 85.4907 51.2127C85.0564 51.2127 84.6146 51.1688 84.1648 51.0807C83.7151 50.9931 83.2728 50.8585 82.8386 50.6778C82.4043 50.4968 81.9856 50.2666 81.5823 49.9873L82.5748 48.2348C82.8439 48.4313 83.136 48.6044 83.4512 48.7544C83.7665 48.9045 84.0847 49.0209 84.4052 49.1033C84.7257 49.1861 85.0201 49.2276 85.2892 49.2276C85.558 49.2276 85.8293 49.1887 86.1033 49.1112C86.3773 49.0338 86.6049 48.9018 86.7859 48.7155C86.9666 48.5296 87.0573 48.271 87.0573 47.9403C87.0573 47.7128 86.9825 47.5061 86.8324 47.3197C86.6824 47.1338 86.4809 46.9629 86.2273 46.808C85.9741 46.653 85.6974 46.5185 85.3977 46.4047C85.0462 46.2702 84.6841 46.1152 84.3118 45.9394C83.9399 45.7637 83.5907 45.549 83.2653 45.2958C82.9395 45.0426 82.6757 44.727 82.4742 44.3498C82.2724 43.9722 82.1719 43.5096 82.1719 42.9616C82.1719 42.2998 82.3189 41.726 82.6137 41.24C82.9085 40.7539 83.3246 40.3688 83.8621 40.0846C84.3999 39.8004 85.0201 39.6424 85.7235 39.6114C86.6438 39.6114 87.3906 39.7202 87.9644 39.9372C88.5385 40.1545 89.0529 40.413 89.5079 40.7127L88.6549 42.4343ZM85.1808 54.8731L84.0639 54.1286C84.2914 53.9116 84.4543 53.5934 84.5526 53.1746C84.6505 52.7558 84.6637 52.3658 84.5912 52.0037L86.4836 52.0192C86.5455 52.3087 86.5274 52.6372 86.4291 53.0041C86.3309 53.3711 86.1759 53.7226 85.9639 54.0586C85.7518 54.395 85.4907 54.6664 85.1808 54.8731Z" fill="#3E0100"/>
</svg>
