<svg width="592" height="266" viewBox="0 0 592 266" fill="none" xmlns="http://www.w3.org/2000/svg">
<path d="M206.676 81.6C203.604 81.6 200.82 80.928 198.324 79.584C195.892 78.24 193.684 76.48 191.7 74.304C189.78 72.128 188.02 69.824 186.42 67.392C185.78 66.432 185.012 65.088 184.116 63.36C183.22 61.568 182.292 59.616 181.332 57.504C180.372 55.392 179.412 53.344 178.452 51.36C177.556 49.312 176.756 47.584 176.052 46.176C175.284 44.512 174.644 43.456 174.132 43.008C173.684 42.56 173.62 42.176 173.94 41.856C174.004 41.856 174.036 41.824 174.036 41.76C174.292 41.504 174.612 41.44 174.996 41.568C175.316 41.696 175.604 41.824 175.86 41.952C176.18 42.08 176.5 42.208 176.82 42.336C179.124 43.104 181.588 43.488 184.212 43.488C186.964 43.488 189.716 43.04 192.468 42.144C195.22 41.184 197.748 39.872 200.052 38.208C202.356 36.48 204.18 34.4 205.524 31.968C206.932 29.472 207.636 26.688 207.636 23.616C207.636 20.864 206.964 18.24 205.62 15.744C204.276 13.248 202.292 11.168 199.668 9.504C196.724 7.648 192.948 6.24 188.34 5.28C183.732 4.256 178.964 3.744 174.036 3.744C170.26 3.744 166.452 4.128 162.612 4.896C158.836 5.6 155.316 6.688 152.052 8.16C148.788 9.568 146.036 11.36 143.796 13.536C142.132 15.2 140.628 17.344 139.284 19.968C137.94 22.592 137.268 25.216 137.268 27.84C137.268 29.056 137.46 30.24 137.844 31.392C138.42 33.184 139.508 34.56 141.108 35.52C142.772 36.416 144.628 36.864 146.676 36.864C148.276 36.864 149.94 36.576 151.668 36C151.732 36 151.764 36 151.764 36C151.828 35.936 151.892 35.904 151.956 35.904C152.148 35.904 152.244 35.968 152.244 36.096C152.244 36.416 152.052 36.64 151.668 36.768C149.94 37.408 147.988 37.728 145.812 37.728C143.764 37.728 141.78 37.344 139.86 36.576C138.004 35.808 136.468 34.624 135.252 33.024C134.1 31.424 133.524 29.376 133.524 26.88C133.524 24.832 133.812 22.976 134.388 21.312C134.964 19.584 135.732 18.016 136.692 16.608C138.356 14.112 140.564 11.968 143.316 10.176C146.068 8.384 149.172 6.912 152.628 5.76C156.084 4.608 159.668 3.776 163.38 3.264C167.092 2.688 170.74 2.4 174.324 2.4C179.38 2.4 184.244 2.784 188.916 3.552C193.652 4.256 197.556 5.28 200.628 6.624C204.916 8.416 207.988 10.752 209.844 13.632C211.7 16.512 212.628 19.52 212.628 22.656C212.628 26.24 211.796 29.408 210.132 32.16C208.468 34.912 206.26 37.248 203.508 39.168C200.82 41.024 197.844 42.464 194.58 43.488C191.38 44.448 188.212 44.928 185.076 44.928C183.732 44.928 182.388 44.864 181.044 44.736C179.764 44.544 178.516 44.288 177.3 43.968C178.196 45.184 179.316 46.784 180.66 48.768C182.004 50.688 183.38 52.736 184.788 54.912C186.26 57.024 187.604 59.008 188.82 60.864C190.1 62.72 191.124 64.128 191.892 65.088C193.3 66.944 194.964 68.928 196.884 71.04C198.804 73.152 200.884 74.944 203.124 76.416C205.428 77.888 207.796 78.624 210.228 78.624C211.892 78.624 213.332 78.208 214.548 77.376C215.764 76.544 216.692 75.584 217.332 74.496C218.036 73.28 218.388 71.744 218.388 69.888C218.388 68.416 218.196 66.944 217.812 65.472C217.428 63.936 216.98 62.592 216.468 61.44C215.636 59.584 214.932 58.272 214.356 57.504C214.036 56.992 213.876 56.672 213.876 56.544C213.876 56.288 214.004 56.16 214.26 56.16C214.644 56.16 215.188 56.448 215.892 57.024C217.3 58.432 218.388 60.096 219.156 62.016C219.988 63.936 220.404 65.92 220.404 67.968C220.404 70.72 219.636 73.312 218.1 75.744C217.012 77.472 215.476 78.88 213.492 79.968C211.508 81.056 209.236 81.6 206.676 81.6ZM134.484 78.336C133.844 78.336 132.82 78.24 131.412 78.048C130.068 77.92 128.82 77.536 127.668 76.896C126.516 76.256 125.94 75.232 125.94 73.824C125.94 72.992 126.132 72.352 126.516 71.904C126.772 71.584 127.028 71.424 127.284 71.424C127.54 71.424 127.604 71.584 127.476 71.904C127.284 72.864 127.636 73.76 128.532 74.592C129.428 75.488 130.324 76.064 131.22 76.32C131.86 76.448 132.468 76.544 133.044 76.608C133.62 76.736 134.164 76.8 134.676 76.8C137.236 76.8 139.572 76.128 141.684 74.784C143.796 73.504 145.684 71.84 147.348 69.792C149.076 67.808 150.612 65.792 151.956 63.744C153.876 60.8 155.764 57.44 157.62 53.664C159.476 49.888 161.396 46.016 163.38 42.048C165.364 38.016 167.444 34.112 169.62 30.336C171.86 26.56 174.292 23.2 176.916 20.256C179.54 17.248 182.42 14.944 185.556 13.344C187.604 12.256 189.556 11.712 191.412 11.712C192.436 11.712 193.364 11.84 194.196 12.096C194.452 12.16 194.516 12.32 194.388 12.576C194.324 12.832 194.164 12.928 193.908 12.864C193.652 12.736 193.364 12.672 193.044 12.672C192.788 12.672 192.5 12.672 192.18 12.672C188.852 12.672 185.364 14.816 181.716 19.104C178.9 22.432 176.468 25.984 174.42 29.76C172.372 33.472 170.484 37.312 168.756 41.28C167.028 45.184 165.236 49.056 163.38 52.896C161.588 56.736 159.444 60.416 156.948 63.936C155.22 66.368 153.268 68.64 151.092 70.752C148.916 72.928 146.516 74.688 143.892 76.032C142.42 76.736 140.884 77.28 139.284 77.664C137.748 78.112 136.148 78.336 134.484 78.336Z" fill="#BE2B2C"/>
<path d="M244.564 70.368C240.852 70.368 238.228 69.408 236.692 67.488C235.924 66.656 235.38 65.664 235.06 64.512C234.74 63.36 234.58 62.176 234.58 60.96C234.58 59.424 234.772 57.888 235.156 56.352C235.54 54.752 236.02 53.28 236.596 51.936C237.492 49.824 238.676 47.712 240.148 45.6C241.62 43.424 243.38 41.6 245.428 40.128C247.54 38.656 249.844 37.92 252.34 37.92C254.004 37.92 255.316 38.336 256.276 39.168C257.236 40 257.716 41.28 257.716 43.008C257.716 44.992 257.108 47.008 255.892 49.056C254.676 51.04 253.14 52.704 251.284 54.048C249.428 55.392 247.508 56.064 245.524 56.064C243.732 56.064 242.164 55.424 240.82 54.144C240.436 55.168 240.116 56.32 239.86 57.6C239.604 58.816 239.476 60.064 239.476 61.344C239.476 63.328 239.86 65.056 240.628 66.528C241.46 68 242.932 68.736 245.044 68.736C246.58 68.736 248.052 68.352 249.46 67.584C250.932 66.752 252.244 65.76 253.396 64.608C254.676 63.264 255.892 61.824 257.044 60.288C258.196 58.752 259.316 56.96 260.404 54.912C260.532 54.72 260.628 54.624 260.692 54.624C260.948 54.624 261.076 54.912 261.076 55.488C261.076 55.872 260.948 56.288 260.692 56.736C259.732 58.464 258.612 60.224 257.332 62.016C256.052 63.744 254.74 65.248 253.396 66.528C252.18 67.68 250.868 68.608 249.46 69.312C248.052 70.016 246.42 70.368 244.564 70.368ZM241.3 52.704C241.748 53.344 242.26 53.824 242.836 54.144C243.476 54.4 244.116 54.528 244.756 54.528C246.292 54.528 247.892 53.952 249.556 52.8C251.22 51.584 252.564 50.176 253.588 48.576C254.036 47.872 254.42 46.944 254.74 45.792C255.124 44.64 255.316 43.552 255.316 42.528C255.316 41.632 255.124 40.864 254.74 40.224C254.42 39.52 253.748 39.168 252.724 39.168C251.572 39.168 250.196 39.872 248.596 41.28C247.06 42.688 245.588 44.512 244.18 46.752C243.732 47.52 243.22 48.416 242.644 49.44C242.132 50.464 241.684 51.552 241.3 52.704Z" fill="#BE2B2C"/>
<path d="M281.497 70.656C278.169 70.656 275.801 69.664 274.393 67.68C272.985 65.632 272.281 63.232 272.281 60.48C272.281 57.472 272.921 54.432 274.201 51.36C275.161 49.056 276.409 46.912 277.945 44.928C279.481 42.88 281.305 41.216 283.417 39.936C285.593 38.656 287.961 38.016 290.521 38.016C292.441 38.016 293.913 38.464 294.937 39.36C296.025 40.256 296.569 41.504 296.569 43.104C296.569 43.616 296.505 44.16 296.377 44.736C296.313 45.312 296.121 45.952 295.801 46.656C295.353 47.808 294.777 48.832 294.073 49.728C293.369 50.624 292.569 51.328 291.673 51.84C291.225 52.096 290.713 52.224 290.137 52.224C289.689 52.224 289.273 52.096 288.889 51.84C288.505 51.584 288.313 51.168 288.313 50.592C288.313 49.568 288.857 48.48 289.945 47.328C291.097 46.112 292.569 45.472 294.361 45.408C294.681 44.576 294.841 43.84 294.841 43.2C294.841 42.176 294.521 41.312 293.881 40.608C293.241 39.84 292.249 39.456 290.905 39.456C289.241 39.456 287.609 40.096 286.009 41.376C284.409 42.592 282.969 44.224 281.689 46.272C280.473 48.256 279.481 50.368 278.713 52.608C278.329 53.632 277.977 54.944 277.657 56.544C277.337 58.08 277.177 59.616 277.177 61.152C277.177 63.136 277.593 64.928 278.425 66.528C279.321 68.064 280.985 68.832 283.417 68.832C285.145 68.832 286.777 68.352 288.313 67.392C289.849 66.368 291.225 65.12 292.441 63.648C293.721 62.176 294.841 60.672 295.801 59.136C296.825 57.536 297.657 56.128 298.297 54.912C298.361 54.656 298.521 54.528 298.777 54.528C299.097 54.528 299.257 54.784 299.257 55.296C299.257 55.552 299.161 55.84 298.969 56.16C297.625 58.528 296.185 60.832 294.649 63.072C293.113 65.248 291.289 67.072 289.177 68.544C287.065 69.952 284.505 70.656 281.497 70.656Z" fill="#BE2B2C"/>
<path d="M318.615 71.52C316.183 71.52 314.071 70.752 312.279 69.216C310.551 67.616 309.687 65.184 309.687 61.92C309.687 59.872 310.039 57.76 310.743 55.584C311.511 53.344 312.343 51.36 313.239 49.632C314.903 46.496 316.983 43.776 319.479 41.472C322.039 39.104 325.079 37.92 328.599 37.92C331.991 37.92 334.359 38.848 335.703 40.704C337.047 42.56 337.719 44.832 337.719 47.52C337.719 48.608 337.623 49.728 337.431 50.88C336.919 54.016 335.863 57.056 334.263 60C334.711 60.64 335.287 61.184 335.991 61.632C336.759 62.016 337.591 62.208 338.487 62.208C340.023 62.208 341.335 61.792 342.423 60.96C343.511 60.128 344.439 59.104 345.207 57.888C346.039 56.608 346.743 55.424 347.319 54.336C347.703 53.632 348.055 53.28 348.375 53.28C348.567 53.28 348.663 53.408 348.663 53.664C348.663 53.92 348.471 54.496 348.087 55.392C346.999 57.568 345.719 59.456 344.247 61.056C342.775 62.656 340.855 63.456 338.487 63.456C336.311 63.456 334.647 62.688 333.495 61.152C331.703 64.096 329.527 66.56 326.967 68.544C324.407 70.528 321.623 71.52 318.615 71.52ZM318.807 70.368C321.943 70.368 325.047 68.832 328.119 65.76C329.015 64.864 329.815 63.936 330.519 62.976C331.287 61.952 331.959 60.928 332.535 59.904C331.703 58.944 331.095 57.92 330.711 56.832C330.391 55.68 330.231 54.592 330.231 53.568C330.231 51.968 330.519 50.56 331.095 49.344C331.671 48.064 332.471 47.424 333.495 47.424C334.007 47.424 334.487 47.68 334.935 48.192C335.447 48.704 335.767 49.504 335.895 50.592C336.087 49.696 336.183 48.736 336.183 47.712C336.183 45.28 335.735 43.36 334.839 41.952C333.943 40.48 332.439 39.744 330.327 39.744C329.047 39.744 327.735 40.256 326.391 41.28C325.047 42.24 323.767 43.424 322.551 44.832C321.399 46.24 320.375 47.68 319.479 49.152C318.583 50.624 317.911 51.84 317.463 52.8C316.375 55.168 315.575 57.28 315.063 59.136C314.615 60.992 314.391 62.624 314.391 64.032C314.391 66.08 314.807 67.648 315.639 68.736C316.535 69.824 317.591 70.368 318.807 70.368Z" fill="#BE2B2C"/>
<path d="M364.785 70.56C362.225 70.56 360.433 69.888 359.409 68.544C358.385 67.136 357.873 65.376 357.873 63.264C357.873 61.344 358.161 59.232 358.737 56.928C359.377 54.56 360.145 52.224 361.041 49.92C362.001 47.616 362.929 45.504 363.825 43.584C364.785 41.664 365.553 40.096 366.129 38.88C367.281 36.512 368.721 33.792 370.449 30.72C372.177 27.648 374.097 24.512 376.209 21.312C378.321 18.048 380.561 14.976 382.929 12.096C385.361 9.216 387.857 6.72 390.417 4.608C392.977 2.496 395.537 1.056 398.097 0.287996C398.801 0.0959988 399.441 0 400.017 0C401.105 0 402.001 0.32 402.705 0.959999C403.473 1.536 403.857 2.56 403.857 4.032C403.857 5.056 403.601 6.336 403.089 7.872C402.257 10.112 400.849 12.608 398.865 15.36C396.881 18.048 394.545 20.864 391.857 23.808C389.169 26.688 386.321 29.536 383.313 32.352C380.369 35.168 377.489 37.792 374.673 40.224C371.857 42.656 369.361 44.736 367.185 46.464C366.801 47.488 366.193 48.992 365.361 50.976C364.593 52.96 363.889 55.072 363.249 57.312C362.609 59.488 362.289 61.504 362.289 63.36C362.289 64.96 362.641 66.272 363.345 67.296C364.049 68.32 365.265 68.832 366.993 68.832C368.081 68.832 369.233 68.512 370.449 67.872C371.729 67.232 372.977 66.24 374.193 64.896C375.793 63.232 377.233 61.376 378.513 59.328C379.857 57.216 380.881 55.52 381.585 54.24C381.649 54.112 381.745 54.048 381.873 54.048C382.065 54.048 382.161 54.272 382.161 54.72C382.161 55.168 382.033 55.648 381.777 56.16C381.137 57.504 380.113 59.2 378.705 61.248C377.361 63.296 375.857 65.12 374.193 66.72C372.977 67.936 371.505 68.896 369.777 69.6C368.049 70.24 366.385 70.56 364.785 70.56ZM368.241 44.256C370.225 42.528 372.529 40.48 375.153 38.112C377.777 35.68 380.465 33.088 383.217 30.336C385.969 27.584 388.561 24.832 390.993 22.08C393.489 19.328 395.633 16.736 397.425 14.304C399.281 11.872 400.529 9.76 401.169 7.968C401.745 6.304 402.033 5.024 402.033 4.128C402.033 2.464 401.297 1.632 399.825 1.632C398.993 1.632 398.001 1.952 396.849 2.592C395.697 3.168 394.641 3.936 393.681 4.896C392.081 6.432 390.193 8.64 388.017 11.52C385.905 14.336 383.665 17.568 381.297 21.216C378.929 24.864 376.593 28.672 374.289 32.64C372.049 36.608 370.033 40.48 368.241 44.256Z" fill="#BE2B2C"/>
<path d="M397.577 70.272C395.977 70.272 394.537 69.824 393.257 68.928C392.041 67.968 391.433 66.432 391.433 64.32C391.433 62.08 391.977 59.616 393.065 56.928C394.153 54.24 395.177 51.84 396.137 49.728C396.649 48.704 397.321 47.328 398.153 45.6C399.049 43.808 400.009 42.048 401.033 40.32H396.521C396.329 40.32 396.233 40.16 396.233 39.84C396.233 39.584 396.329 39.328 396.521 39.072C396.713 38.752 396.937 38.592 397.193 38.592C398.985 38.592 400.329 38.432 401.225 38.112C402.121 37.792 402.889 37.344 403.529 36.768C404.553 35.872 405.545 34.72 406.505 33.312C407.529 31.904 408.521 30.688 409.481 29.664C410.185 28.768 411.049 28.096 412.073 27.648C413.161 27.2 413.865 27.04 414.185 27.168C413.865 27.616 413.353 28.384 412.649 29.472C411.945 30.56 411.209 31.744 410.441 33.024C409.673 34.304 408.969 35.488 408.329 36.576C407.689 37.664 407.273 38.4 407.081 38.784H413.417C413.609 38.784 413.705 38.848 413.705 38.976C413.705 39.232 413.545 39.52 413.225 39.84C412.969 40.16 412.713 40.32 412.457 40.32H406.217C405.065 42.304 403.689 44.896 402.089 48.096C400.553 51.232 399.177 54.272 397.961 57.216C397.705 57.792 397.257 58.944 396.617 60.672C396.041 62.4 395.753 64 395.753 65.472C395.753 66.432 395.945 67.232 396.329 67.872C396.777 68.512 397.513 68.832 398.537 68.832C399.625 68.832 400.809 68.448 402.089 67.68C403.369 66.848 404.361 66.016 405.065 65.184C406.537 63.584 407.881 61.824 409.097 59.904C410.313 57.984 411.529 55.936 412.745 53.76C412.937 53.504 413.129 53.376 413.321 53.376C413.577 53.376 413.705 53.568 413.705 53.952C413.705 54.272 413.641 54.528 413.513 54.72C412.361 56.832 411.113 58.944 409.769 61.056C408.489 63.168 406.921 65.152 405.065 67.008C404.233 67.84 403.113 68.608 401.705 69.312C400.297 69.952 398.921 70.272 397.577 70.272Z" fill="#BE2B2C"/>
<path d="M445.134 70.272C443.086 70.272 441.678 69.632 440.91 68.352C440.142 67.008 439.758 65.536 439.758 63.936C439.758 63.616 439.79 63.072 439.854 62.304C439.982 61.472 440.11 60.704 440.238 60C439.342 61.216 438.254 62.56 436.974 64.032C435.758 65.504 434.51 66.752 433.23 67.776C431.182 69.44 429.326 70.272 427.662 70.272C426.062 70.272 424.814 69.6 423.918 68.256C423.086 66.912 422.67 65.216 422.67 63.168C422.67 60.544 423.246 57.888 424.398 55.2C425.55 52.512 427.054 49.984 428.91 47.616C430.83 45.184 432.942 43.104 435.246 41.376C436.59 40.416 438.222 39.648 440.142 39.072C442.126 38.432 444.11 38.112 446.094 38.112C448.334 38.112 450.286 38.464 451.95 39.168C453.678 39.808 454.862 40.736 455.502 41.952C454.158 43.68 452.782 45.824 451.374 48.384C449.966 50.88 448.75 53.152 447.726 55.2C447.022 56.608 446.254 58.368 445.422 60.48C444.59 62.528 444.174 64.288 444.174 65.76C444.174 66.4 444.334 67.04 444.654 67.68C444.974 68.32 445.582 68.64 446.478 68.64C447.502 68.64 448.494 68.256 449.454 67.488C450.414 66.72 451.214 65.952 451.854 65.184C453.326 63.584 454.67 61.824 455.886 59.904C457.102 57.984 458.318 55.936 459.534 53.76C459.726 53.504 459.918 53.376 460.11 53.376C460.366 53.376 460.494 53.568 460.494 53.952C460.494 54.272 460.43 54.528 460.302 54.72C459.214 56.832 457.998 58.944 456.654 61.056C455.31 63.168 453.71 65.152 451.854 67.008C450.958 67.904 449.902 68.672 448.686 69.312C447.47 69.952 446.286 70.272 445.134 70.272ZM429.774 67.296C430.99 67.296 432.302 66.656 433.71 65.376C435.182 64.032 436.59 62.432 437.934 60.576C439.342 58.656 440.59 56.832 441.678 55.104C442.83 53.312 443.726 51.936 444.366 50.976C445.71 48.864 446.958 47.104 448.11 45.696C449.262 44.288 451.054 43.2 453.486 42.432C453.614 42.432 453.71 42.432 453.774 42.432C453.902 42.368 454.03 42.336 454.158 42.336C453.582 41.44 452.622 40.768 451.278 40.32C449.934 39.872 448.622 39.648 447.342 39.648C445.358 39.648 443.438 40.192 441.582 41.28C439.726 42.368 438.03 43.744 436.494 45.408C435.022 47.136 433.582 49.024 432.174 51.072C430.766 53.12 429.614 55.2 428.718 57.312C427.886 59.424 427.47 61.44 427.47 63.36C427.47 64.384 427.63 65.312 427.95 66.144C428.334 66.912 428.942 67.296 429.774 67.296Z" fill="#BE2B2C"/>
<path d="M26.208 233.272C24.032 233.272 22.464 232.536 21.504 231.064C20.544 229.528 20.064 227.64 20.064 225.4C20.064 223.16 20.448 220.952 21.216 218.776L22.176 215.992L18.624 221.464C17.728 222.872 16.544 224.472 15.072 226.264C13.664 227.992 12.16 229.496 10.56 230.776C8.512 232.44 6.656 233.272 4.992 233.272C3.392 233.272 2.144 232.6 1.248 231.256C0.416 229.912 0 228.216 0 226.168C0 224.76 0.192 223.352 0.576 221.944C1.536 218.36 3.008 215.096 4.992 212.152C6.976 209.144 9.472 206.552 12.48 204.376C13.76 203.416 15.392 202.648 17.376 202.072C19.36 201.432 21.344 201.112 23.328 201.112C24.096 201.112 24.864 201.176 25.632 201.304C26.4 201.432 27.104 201.592 27.744 201.784C28.256 200.632 28.832 199.352 29.472 197.944C30.176 196.536 30.848 195.16 31.488 193.816C32.192 192.408 32.768 191.256 33.216 190.36C34.496 187.736 36.096 184.6 38.016 180.952C39.936 177.304 42.176 173.912 44.736 170.776C46.72 168.28 48.992 166.104 51.552 164.248C54.176 162.328 56.704 161.368 59.136 161.368C60.608 161.368 61.696 161.816 62.4 162.712C63.168 163.608 63.552 164.696 63.552 165.976C63.552 167.128 63.328 168.184 62.88 169.144C61.856 171.448 60.224 173.88 57.984 176.44C55.808 179 53.44 181.496 50.88 183.928C48.384 186.296 46.144 188.44 44.16 190.36C42.496 191.96 41.024 193.368 39.744 194.584C38.464 195.736 37.28 196.888 36.192 198.04C35.104 199.192 33.92 200.472 32.64 201.88C31.232 205.08 29.92 208.28 28.704 211.48C27.552 214.68 26.592 217.656 25.824 220.408C25.12 223.16 24.768 225.464 24.768 227.32C24.768 229.944 25.568 231.352 27.168 231.544C28.256 231.544 29.28 231.192 30.24 230.488C31.2 229.784 32.032 229.016 32.736 228.184C34.208 226.584 35.552 224.824 36.768 222.904C37.984 220.984 39.2 218.936 40.416 216.76C40.608 216.504 40.8 216.376 40.992 216.376C41.248 216.376 41.376 216.568 41.376 216.952C41.376 217.272 41.312 217.528 41.184 217.72C40.032 219.832 38.784 221.944 37.44 224.056C36.16 226.168 34.592 228.152 32.736 230.008C31.904 230.84 30.944 231.608 29.856 232.312C28.768 232.952 27.552 233.272 26.208 233.272ZM34.176 198.52C35.648 196.856 37.024 195.384 38.304 194.104C39.584 192.76 41.152 191.128 43.008 189.208C44.8 187.416 46.848 185.304 49.152 182.872C51.52 180.44 53.728 177.976 55.776 175.48C57.888 172.984 59.424 170.776 60.384 168.856C61.152 167.32 61.536 166.072 61.536 165.112C61.536 163.512 60.736 162.712 59.136 162.712C57.152 162.712 55.072 163.64 52.896 165.496C50.784 167.288 48.704 169.752 46.656 172.888C44.928 175.576 43.296 178.52 41.76 181.72C40.224 184.856 38.816 187.896 37.536 190.84C36.256 193.784 35.136 196.344 34.176 198.52ZM7.008 230.296C8.16 230.296 9.536 229.528 11.136 227.992C12.8 226.392 14.496 224.44 16.224 222.136C18.016 219.768 19.648 217.464 21.12 215.224C21.568 214.584 22.144 213.528 22.848 212.056C23.616 210.584 24.416 209.016 25.248 207.352C26.08 205.624 26.784 204.12 27.36 202.84C26.976 202.712 26.592 202.648 26.208 202.648C25.888 202.648 25.536 202.648 25.152 202.648C23.168 202.648 21.184 203.192 19.2 204.28C17.28 205.304 15.552 206.68 14.016 208.408C11.84 210.776 10.016 213.336 8.544 216.088C7.072 218.776 6.048 221.144 5.472 223.192C5.152 224.344 4.992 225.528 4.992 226.744C4.992 227.704 5.12 228.536 5.376 229.24C5.696 229.944 6.24 230.296 7.008 230.296Z" fill="#BE2B2C"/>
<path d="M63.4335 233.464C59.7855 233.464 56.9375 232.472 54.8895 230.488C52.9055 228.504 51.9135 225.848 51.9135 222.52C51.9135 221.368 52.0415 220.152 52.2975 218.872C52.5535 217.528 52.9695 216.152 53.5455 214.744C54.4415 212.632 55.5935 210.552 57.0015 208.504C58.4095 206.456 60.1055 204.728 62.0895 203.32C64.0735 201.912 66.2815 201.112 68.7135 200.92C69.6095 200.856 70.4415 200.92 71.2095 201.112C71.9775 201.304 72.6495 201.688 73.2255 202.264C73.7375 202.712 74.0895 203.288 74.2815 203.992C74.5375 204.632 74.6655 205.304 74.6655 206.008C74.6655 207.992 74.0575 210.008 72.8415 212.056C71.6255 214.04 70.0895 215.704 68.2335 217.048C66.3775 218.392 64.4575 219.064 62.4735 219.064C60.6815 219.064 59.1135 218.424 57.7695 217.144C57.1935 219.128 56.9055 221.112 56.9055 223.096C56.9055 225.528 57.4495 227.608 58.5375 229.336C59.6895 231 61.6415 231.832 64.3935 231.832C67.1455 231.832 69.5135 231.096 71.4975 229.624C73.5455 228.152 75.3055 226.328 76.7775 224.152C78.3135 221.912 79.6575 219.768 80.8095 217.72C80.9375 217.528 81.0655 217.432 81.1935 217.432C81.4495 217.432 81.5775 217.688 81.5775 218.2C81.5775 218.52 81.4815 218.872 81.2895 219.256C80.0735 221.432 78.6655 223.608 77.0655 225.784C75.5295 227.96 73.6415 229.784 71.4015 231.256C69.2255 232.728 66.5695 233.464 63.4335 233.464ZM58.2495 215.704C58.6975 216.344 59.2095 216.824 59.7855 217.144C60.4255 217.4 61.0655 217.528 61.7055 217.528C63.2415 217.528 64.8415 216.952 66.5055 215.8C68.1695 214.584 69.5135 213.176 70.5375 211.576C70.9855 210.872 71.3695 209.944 71.6895 208.792C72.0735 207.64 72.2655 206.552 72.2655 205.528C72.2655 204.632 72.0735 203.864 71.6895 203.224C71.3695 202.52 70.6975 202.168 69.6735 202.168C68.5215 202.168 67.1455 202.872 65.5455 204.28C64.0095 205.688 62.5375 207.512 61.1295 209.752C60.6815 210.52 60.1695 211.416 59.5935 212.44C59.0815 213.464 58.6335 214.552 58.2495 215.704Z" fill="#BE2B2C"/>
<path d="M129.752 234.52C127.32 234.52 125.208 233.752 123.416 232.216C121.688 230.616 120.824 228.184 120.824 224.92C120.824 222.872 121.176 220.76 121.88 218.584C122.648 216.344 123.48 214.36 124.376 212.632C126.04 209.496 128.12 206.776 130.616 204.472C133.176 202.104 136.216 200.92 139.736 200.92C143.128 200.92 145.496 201.848 146.84 203.704C148.184 205.56 148.856 207.832 148.856 210.52C148.856 211.608 148.76 212.728 148.568 213.88C148.056 217.016 147 220.056 145.4 223C145.848 223.64 146.424 224.184 147.128 224.632C147.896 225.016 148.728 225.208 149.624 225.208C151.16 225.208 152.472 224.792 153.56 223.96C154.648 223.128 155.576 222.104 156.344 220.888C157.176 219.608 157.88 218.424 158.456 217.336C158.84 216.632 159.192 216.28 159.512 216.28C159.704 216.28 159.8 216.408 159.8 216.664C159.8 216.92 159.608 217.496 159.224 218.392C158.136 220.568 156.856 222.456 155.384 224.056C153.912 225.656 151.992 226.456 149.624 226.456C147.448 226.456 145.784 225.688 144.632 224.152C142.84 227.096 140.664 229.56 138.104 231.544C135.544 233.528 132.76 234.52 129.752 234.52ZM129.944 233.368C133.08 233.368 136.184 231.832 139.256 228.76C140.152 227.864 140.952 226.936 141.656 225.976C142.424 224.952 143.096 223.928 143.672 222.904C142.84 221.944 142.232 220.92 141.848 219.832C141.528 218.68 141.368 217.592 141.368 216.568C141.368 214.968 141.656 213.56 142.232 212.344C142.808 211.064 143.608 210.424 144.632 210.424C145.144 210.424 145.624 210.68 146.072 211.192C146.584 211.704 146.904 212.504 147.032 213.592C147.224 212.696 147.32 211.736 147.32 210.712C147.32 208.28 146.872 206.36 145.976 204.952C145.08 203.48 143.576 202.744 141.464 202.744C140.184 202.744 138.872 203.256 137.528 204.28C136.184 205.24 134.904 206.424 133.688 207.832C132.536 209.24 131.512 210.68 130.616 212.152C129.72 213.624 129.048 214.84 128.6 215.8C127.512 218.168 126.712 220.28 126.2 222.136C125.752 223.992 125.528 225.624 125.528 227.032C125.528 229.08 125.944 230.648 126.776 231.736C127.672 232.824 128.728 233.368 129.944 233.368Z" fill="#BE2B2C"/>
<path d="M141.938 264.76C139.954 265.464 137.937 265.816 135.889 265.816C133.073 265.816 130.545 265.144 128.305 263.8C126.065 262.456 124.945 260.408 124.945 257.656C124.945 257.144 124.977 256.632 125.041 256.12C125.105 255.672 125.233 255.16 125.425 254.584C125.617 254.136 125.777 253.944 125.905 254.008C125.969 254.136 126.001 254.328 126.001 254.584C126.001 257.72 127.09 260.12 129.266 261.784C131.378 263.448 133.842 264.28 136.658 264.28C138.386 264.28 140.049 263.992 141.649 263.416C144.273 262.52 146.61 261.112 148.658 259.192C150.706 257.272 152.465 255.224 153.938 253.048C155.345 251 156.753 248.632 158.161 245.944C159.569 243.256 160.913 240.44 162.193 237.496C163.473 234.552 164.689 231.704 165.841 228.952C166.993 226.136 167.986 223.64 168.818 221.464C169.778 218.968 170.898 216.248 172.178 213.304C173.522 210.36 174.994 207.416 176.594 204.472C178.194 201.464 179.921 198.744 181.777 196.312C183.697 193.816 185.681 191.8 187.729 190.264C189.201 189.112 190.737 188.536 192.337 188.536C192.593 188.536 192.818 188.536 193.01 188.536C193.266 188.536 193.521 188.6 193.777 188.728C193.905 188.792 193.969 188.888 193.969 189.016C193.969 189.08 193.841 189.112 193.585 189.112C192.945 189.176 192.177 189.496 191.281 190.072C190.385 190.584 189.298 191.704 188.018 193.432C187.506 194.2 186.353 195.832 184.561 198.328C182.833 200.824 181.201 203.832 179.665 207.352C181.521 205.24 183.25 203.736 184.85 202.84C186.45 201.944 187.889 201.496 189.169 201.496C191.217 201.496 192.625 202.008 193.393 203.032C194.161 204.056 194.546 205.336 194.546 206.872C194.546 208.28 194.289 209.784 193.777 211.384C193.329 212.984 192.753 214.52 192.049 215.992C191.41 217.464 190.801 218.712 190.225 219.736C189.777 220.568 189.106 221.56 188.21 222.712C187.314 223.864 186.289 225.048 185.137 226.264C185.329 227.16 185.714 227.8 186.29 228.184C186.93 228.568 187.665 228.76 188.497 228.76C189.393 228.76 190.321 228.568 191.281 228.184C192.305 227.8 193.137 227.32 193.777 226.744C195.249 225.528 196.593 224.088 197.809 222.424C199.025 220.76 200.145 219.032 201.169 217.24C201.233 217.112 201.266 217.048 201.266 217.048C201.33 217.048 201.361 217.048 201.361 217.048C201.489 217.048 201.553 217.336 201.553 217.912C201.553 218.168 201.553 218.424 201.553 218.68C201.553 218.872 201.489 219.064 201.361 219.256C200.273 221.176 199.153 222.904 198.001 224.44C196.849 225.912 195.441 227.224 193.777 228.376C192.945 228.888 192.017 229.336 190.993 229.72C190.033 230.04 189.073 230.2 188.113 230.2C187.153 230.2 186.289 230.008 185.521 229.624C184.817 229.176 184.306 228.472 183.986 227.512C182.898 228.536 181.585 229.592 180.049 230.68C178.577 231.704 177.041 232.28 175.441 232.408C175.185 232.472 174.929 232.504 174.673 232.504C174.481 232.504 174.29 232.504 174.098 232.504C171.858 232.504 170.481 231.64 169.969 229.912C169.009 232.664 167.666 235.768 165.938 239.224C164.209 242.68 162.162 246.104 159.794 249.496C157.426 252.952 154.77 256.024 151.826 258.712C148.818 261.464 145.522 263.48 141.938 264.76ZM173.521 231.064C174.673 231.064 175.825 230.616 176.977 229.72C178.193 228.76 179.346 227.576 180.434 226.168C181.586 224.76 182.642 223.288 183.602 221.752C184.626 220.216 185.458 218.84 186.098 217.624C186.482 216.984 186.993 215.992 187.633 214.648C188.274 213.24 188.849 211.736 189.361 210.136C189.873 208.536 190.13 207.128 190.13 205.912C190.13 205.016 189.97 204.312 189.65 203.8C189.33 203.288 188.722 203.032 187.826 203.032C186.802 203.032 185.617 203.608 184.273 204.76C182.993 205.912 181.681 207.352 180.337 209.08C179.057 210.808 177.873 212.536 176.785 214.264C176.529 214.712 176.081 215.48 175.441 216.568C174.801 217.656 174.129 218.904 173.425 220.312C172.785 221.72 172.209 223.128 171.697 224.536C171.249 225.944 171.025 227.192 171.025 228.28C171.025 230.136 171.857 231.064 173.521 231.064Z" fill="#BE2B2C"/>
<path d="M221.181 234.52C218.749 234.52 216.637 233.752 214.845 232.216C213.117 230.616 212.253 228.184 212.253 224.92C212.253 222.872 212.605 220.76 213.309 218.584C214.077 216.344 214.909 214.36 215.805 212.632C217.469 209.496 219.549 206.776 222.045 204.472C224.605 202.104 227.645 200.92 231.165 200.92C234.557 200.92 236.925 201.848 238.269 203.704C239.613 205.56 240.285 207.832 240.285 210.52C240.285 211.608 240.189 212.728 239.997 213.88C239.485 217.016 238.429 220.056 236.829 223C237.277 223.64 237.853 224.184 238.557 224.632C239.325 225.016 240.157 225.208 241.053 225.208C242.589 225.208 243.901 224.792 244.989 223.96C246.077 223.128 247.005 222.104 247.773 220.888C248.605 219.608 249.309 218.424 249.885 217.336C250.269 216.632 250.621 216.28 250.941 216.28C251.133 216.28 251.229 216.408 251.229 216.664C251.229 216.92 251.037 217.496 250.653 218.392C249.565 220.568 248.285 222.456 246.813 224.056C245.341 225.656 243.421 226.456 241.053 226.456C238.877 226.456 237.213 225.688 236.061 224.152C234.269 227.096 232.093 229.56 229.533 231.544C226.973 233.528 224.189 234.52 221.181 234.52ZM221.373 233.368C224.509 233.368 227.613 231.832 230.685 228.76C231.581 227.864 232.381 226.936 233.085 225.976C233.853 224.952 234.525 223.928 235.101 222.904C234.269 221.944 233.661 220.92 233.277 219.832C232.957 218.68 232.797 217.592 232.797 216.568C232.797 214.968 233.085 213.56 233.661 212.344C234.237 211.064 235.037 210.424 236.061 210.424C236.573 210.424 237.053 210.68 237.501 211.192C238.013 211.704 238.333 212.504 238.461 213.592C238.653 212.696 238.749 211.736 238.749 210.712C238.749 208.28 238.301 206.36 237.405 204.952C236.509 203.48 235.005 202.744 232.893 202.744C231.613 202.744 230.301 203.256 228.957 204.28C227.613 205.24 226.333 206.424 225.117 207.832C223.965 209.24 222.941 210.68 222.045 212.152C221.149 213.624 220.477 214.84 220.029 215.8C218.941 218.168 218.141 220.28 217.629 222.136C217.181 223.992 216.957 225.624 216.957 227.032C216.957 229.08 217.373 230.648 218.205 231.736C219.101 232.824 220.157 233.368 221.373 233.368Z" fill="#BE2B2C"/>
<path d="M280.79 230.872C279.702 231.768 278.614 232.408 277.526 232.792C276.502 233.24 275.542 233.464 274.646 233.464C273.046 233.464 271.702 232.92 270.614 231.832C269.59 230.68 269.078 229.176 269.078 227.32C269.078 226.232 269.334 224.92 269.846 223.384C270.678 221.08 271.926 218.872 273.59 216.76C275.254 214.648 276.854 212.504 278.39 210.328C279.35 209.048 279.83 207.8 279.83 206.584C279.83 205.944 279.638 205.4 279.254 204.952C278.934 204.504 278.326 204.248 277.43 204.184C276.918 204.056 276.342 203.992 275.702 203.992C275.062 203.992 274.422 203.992 273.782 203.992H271.094C270.71 203.992 270.358 203.992 270.038 203.992C269.718 203.992 269.43 203.96 269.174 203.896C268.918 205.496 268.374 207.288 267.542 209.272C266.774 211.256 265.878 213.24 264.854 215.224C263.83 217.208 262.838 219 261.878 220.6C261.622 220.984 261.398 221.176 261.206 221.176C261.014 221.176 260.918 220.984 260.918 220.6C260.918 220.152 261.014 219.8 261.206 219.544C262.55 216.92 263.83 214.36 265.046 211.864C266.326 209.304 267.19 206.648 267.638 203.896C266.166 203.064 265.174 201.624 264.662 199.576C264.598 199.256 264.534 198.968 264.47 198.712C264.47 198.392 264.47 198.104 264.47 197.848C264.47 196.696 264.694 195.736 265.142 194.968C265.654 194.136 266.23 193.72 266.87 193.72C267.766 193.72 268.502 194.584 269.078 196.312C269.206 196.76 269.302 197.272 269.366 197.848C269.43 198.36 269.462 198.872 269.462 199.384C269.462 199.96 269.43 200.504 269.366 201.016C269.366 201.464 269.334 201.848 269.27 202.168C269.718 202.296 270.294 202.392 270.998 202.456C271.766 202.52 272.598 202.552 273.494 202.552C274.838 202.552 276.246 202.52 277.718 202.456C279.19 202.328 280.438 202.264 281.462 202.264C282.678 202.264 283.51 202.52 283.958 203.032C284.406 203.544 284.63 204.184 284.63 204.952C284.63 205.912 284.374 206.968 283.862 208.12C283.414 209.208 282.966 210.136 282.518 210.904C281.686 212.44 280.886 213.816 280.118 215.032C279.414 216.184 278.614 217.432 277.718 218.776C276.374 220.824 275.382 222.712 274.742 224.44C274.166 226.104 273.878 227.512 273.878 228.664C273.878 230.648 274.614 231.64 276.086 231.64C277.302 231.64 278.87 230.776 280.79 229.048C282.006 227.96 283.126 226.68 284.15 225.208C285.238 223.672 286.198 222.136 287.03 220.6C287.926 219 288.662 217.688 289.238 216.664C289.366 216.472 289.494 216.376 289.622 216.376C289.878 216.376 290.006 216.632 290.006 217.144C290.006 217.528 289.91 217.88 289.718 218.2C288.63 220.184 287.382 222.36 285.974 224.728C284.566 227.096 282.838 229.144 280.79 230.872Z" fill="#BE2B2C"/>
<path d="M305.017 233.272C303.417 233.272 301.977 232.824 300.697 231.928C299.481 230.968 298.873 229.432 298.873 227.32C298.873 225.08 299.417 222.616 300.505 219.928C301.593 217.24 302.617 214.84 303.577 212.728C304.089 211.704 304.761 210.328 305.593 208.6C306.489 206.808 307.449 205.048 308.473 203.32H303.961C303.769 203.32 303.673 203.16 303.673 202.84C303.673 202.584 303.769 202.328 303.961 202.072C304.153 201.752 304.377 201.592 304.633 201.592C306.425 201.592 307.769 201.432 308.665 201.112C309.561 200.792 310.329 200.344 310.969 199.768C311.993 198.872 312.985 197.72 313.945 196.312C314.969 194.904 315.961 193.688 316.921 192.664C317.625 191.768 318.489 191.096 319.513 190.648C320.601 190.2 321.305 190.04 321.625 190.168C321.305 190.616 320.793 191.384 320.089 192.472C319.385 193.56 318.65 194.744 317.882 196.024C317.114 197.304 316.41 198.488 315.77 199.576C315.13 200.664 314.713 201.4 314.521 201.784H320.857C321.049 201.784 321.145 201.848 321.145 201.976C321.145 202.232 320.985 202.52 320.665 202.84C320.409 203.16 320.153 203.32 319.897 203.32H313.658C312.506 205.304 311.129 207.896 309.529 211.096C307.993 214.232 306.617 217.272 305.401 220.216C305.145 220.792 304.697 221.944 304.057 223.672C303.481 225.4 303.193 227 303.193 228.472C303.193 229.432 303.385 230.232 303.769 230.872C304.217 231.512 304.953 231.832 305.977 231.832C307.065 231.832 308.249 231.448 309.529 230.68C310.809 229.848 311.801 229.016 312.505 228.184C313.977 226.584 315.321 224.824 316.537 222.904C317.753 220.984 318.969 218.936 320.185 216.76C320.377 216.504 320.569 216.376 320.761 216.376C321.017 216.376 321.145 216.568 321.145 216.952C321.145 217.272 321.081 217.528 320.953 217.72C319.801 219.832 318.553 221.944 317.209 224.056C315.929 226.168 314.361 228.152 312.505 230.008C311.673 230.84 310.553 231.608 309.145 232.312C307.737 232.952 306.361 233.272 305.017 233.272Z" fill="#BE2B2C"/>
<path d="M335.102 233.176C333.118 233.176 331.678 232.6 330.782 231.448C329.95 230.296 329.534 228.888 329.534 227.224C329.534 225.112 329.95 222.808 330.782 220.312C331.678 217.816 332.702 215.448 333.854 213.208C335.006 210.904 335.934 209.112 336.638 207.832C338.046 205.464 339.454 203.992 340.862 203.416C342.334 202.84 344.126 202.552 346.238 202.552C345.598 202.744 344.766 203.512 343.742 204.856C342.718 206.136 341.63 207.736 340.478 209.656C339.39 211.576 338.334 213.656 337.31 215.896C336.35 218.072 335.55 220.216 334.91 222.328C334.334 224.376 334.046 226.136 334.046 227.608C334.046 228.696 334.238 229.592 334.622 230.296C335.07 231 335.742 231.352 336.638 231.352C337.406 231.352 338.302 231.064 339.326 230.488C340.35 229.848 341.278 229.08 342.11 228.184C344.926 225.048 347.198 221.624 348.926 217.912C350.718 214.136 352.702 210.392 354.878 206.68C356.286 204.312 357.694 202.84 359.102 202.264C360.574 201.688 362.366 201.4 364.478 201.4C363.838 201.592 362.974 202.392 361.886 203.8C360.798 205.144 359.646 206.84 358.43 208.888C357.278 210.936 356.19 213.144 355.166 215.512C354.142 217.816 353.278 220.056 352.574 222.232C351.934 224.408 351.614 226.264 351.614 227.8C351.614 228.824 351.806 229.688 352.19 230.392C352.638 231.032 353.278 231.352 354.11 231.352C354.878 231.352 355.774 231.032 356.798 230.392C357.822 229.752 358.75 229.016 359.582 228.184C361.054 226.584 362.398 224.824 363.614 222.904C364.83 220.984 366.046 218.936 367.262 216.76C367.454 216.504 367.614 216.376 367.742 216.376C367.998 216.376 368.126 216.568 368.126 216.952C368.126 217.272 368.062 217.528 367.934 217.72C366.782 219.832 365.566 221.944 364.286 224.056C363.006 226.168 361.438 228.152 359.582 230.008C358.558 231.032 357.342 231.896 355.934 232.6C354.59 233.24 353.246 233.432 351.902 233.176C350.11 232.856 348.83 232.152 348.062 231.064C347.294 229.912 346.91 228.536 346.91 226.936C346.91 225.656 347.102 224.312 347.486 222.904C346.718 224.12 345.886 225.336 344.99 226.552C344.158 227.768 343.198 228.92 342.11 230.008C341.214 230.904 340.126 231.672 338.846 232.312C337.63 232.888 336.382 233.176 335.102 233.176Z" fill="#BE2B2C"/>
<path d="M396.864 233.176C395.008 233.176 393.536 232.6 392.448 231.448C391.424 230.296 390.912 228.856 390.912 227.128C390.912 226.296 391.072 225.336 391.392 224.248C392.288 221.432 393.696 218.648 395.616 215.896C397.6 213.08 399.232 210.296 400.512 207.544C400.96 206.648 401.184 205.848 401.184 205.144C401.184 204.44 400.96 203.928 400.512 203.608C400.128 203.224 399.648 203.032 399.072 203.032C398.24 203.032 397.184 203.384 395.904 204.088C394.688 204.728 393.28 205.976 391.68 207.832C390.72 208.984 389.632 210.392 388.416 212.056C387.2 213.72 386.208 215.224 385.44 216.568C384.16 218.744 383.008 220.952 381.984 223.192C380.96 225.368 380.064 227.384 379.296 229.24C378.656 230.712 377.888 231.672 376.992 232.12C376.096 232.504 375.232 232.664 374.4 232.6C373.568 232.536 372.928 232.536 372.48 232.6C374.272 229.08 376.032 225.368 377.76 221.464C379.488 217.56 380.96 213.656 382.176 209.752C382.752 207.96 383.232 206.232 383.616 204.568C384 202.84 384.16 201.72 384.096 201.208V201.016C384.096 200.504 384.352 200.376 384.864 200.632C385.696 201.08 386.272 201.752 386.592 202.648C386.912 203.48 387.072 204.44 387.072 205.528C387.072 206.744 386.912 208.056 386.592 209.464C386.272 210.808 385.888 212.024 385.44 213.112C386.272 211.96 387.168 210.808 388.128 209.656C389.088 208.44 390.144 207.288 391.296 206.2C392.64 204.856 394.08 203.704 395.616 202.744C397.152 201.72 398.816 201.208 400.608 201.208C402.336 201.208 403.584 201.592 404.352 202.36C405.184 203.128 405.6 204.152 405.6 205.432C405.6 206.776 405.216 208.312 404.448 210.04C403.616 212.024 402.592 214.008 401.376 215.992C400.224 217.976 399.168 219.896 398.208 221.752C398.016 222.136 397.696 222.744 397.248 223.576C396.864 224.344 396.512 225.208 396.192 226.168C396.064 226.616 395.936 227.096 395.808 227.608C395.68 228.056 395.616 228.536 395.616 229.048C395.616 229.688 395.744 230.296 396 230.872C396.32 231.384 396.896 231.64 397.728 231.64C398.816 231.64 399.84 231.288 400.8 230.584C401.824 229.816 402.688 229.016 403.392 228.184C404.864 226.584 406.208 224.824 407.424 222.904C408.704 220.92 409.952 218.84 411.168 216.664C411.36 216.408 411.488 216.28 411.552 216.28C411.808 216.28 411.936 216.568 411.936 217.144C411.936 217.528 411.872 217.816 411.744 218.008C410.592 220.12 409.376 222.2 408.096 224.248C406.816 226.232 405.248 228.152 403.392 230.008C402.56 230.84 401.6 231.576 400.512 232.216C399.424 232.856 398.208 233.176 396.864 233.176Z" fill="#BE2B2C"/>
<path d="M425.68 233.176C423.888 233.176 422.576 232.6 421.744 231.448C420.912 230.232 420.496 228.76 420.496 227.032C420.496 226.52 420.528 226.008 420.592 225.496C420.72 224.92 420.849 224.344 420.977 223.768C421.681 221.208 422.768 218.36 424.24 215.224C425.776 212.024 427.248 209.176 428.656 206.68C429.488 205.272 430.256 204.28 430.96 203.704C431.664 203.064 432.432 202.616 433.264 202.36C434.096 202.04 435.088 201.688 436.24 201.304C436.56 201.176 436.88 201.08 437.201 201.016C437.521 200.952 437.873 200.888 438.257 200.824C436.977 202.104 435.664 203.64 434.32 205.432C433.04 207.224 431.632 209.688 430.096 212.824C429.264 214.488 428.432 216.344 427.6 218.392C426.832 220.44 426.16 222.36 425.584 224.152C425.008 225.944 424.688 227.352 424.624 228.376C424.56 229.592 424.72 230.456 425.104 230.968C425.488 231.48 426.001 231.736 426.641 231.736C427.729 231.736 428.752 231.352 429.712 230.584C430.736 229.816 431.632 229.016 432.4 228.184C433.808 226.584 435.12 224.824 436.336 222.904C437.616 220.984 438.864 218.936 440.08 216.76C440.272 216.504 440.432 216.376 440.56 216.376C440.816 216.376 440.944 216.568 440.944 216.952C440.944 217.272 440.881 217.528 440.753 217.72C439.601 219.832 438.384 221.944 437.104 224.056C435.824 226.168 434.256 228.152 432.4 230.008C431.568 230.84 430.576 231.576 429.424 232.216C428.336 232.856 427.088 233.176 425.68 233.176ZM437.392 195.448C436.688 195.448 436.08 195.192 435.568 194.68C435.12 194.168 434.896 193.56 434.896 192.856C434.896 191.96 435.248 191.16 435.952 190.456C436.72 189.752 437.552 189.336 438.448 189.208C439.152 189.208 439.728 189.464 440.176 189.976C440.688 190.424 440.944 191.032 440.944 191.8C440.944 192.632 440.592 193.464 439.888 194.296C439.184 195.064 438.352 195.448 437.392 195.448Z" fill="#BE2B2C"/>
<path d="M455.812 233.272C454.212 233.272 452.772 232.824 451.492 231.928C450.276 230.968 449.668 229.432 449.668 227.32C449.668 225.08 450.213 222.616 451.301 219.928C452.389 217.24 453.412 214.84 454.372 212.728C454.884 211.704 455.556 210.328 456.388 208.6C457.284 206.808 458.244 205.048 459.268 203.32H454.757C454.564 203.32 454.469 203.16 454.469 202.84C454.469 202.584 454.564 202.328 454.757 202.072C454.949 201.752 455.172 201.592 455.428 201.592C457.22 201.592 458.565 201.432 459.461 201.112C460.357 200.792 461.124 200.344 461.764 199.768C462.788 198.872 463.781 197.72 464.741 196.312C465.765 194.904 466.756 193.688 467.716 192.664C468.42 191.768 469.285 191.096 470.309 190.648C471.397 190.2 472.101 190.04 472.421 190.168C472.101 190.616 471.588 191.384 470.884 192.472C470.18 193.56 469.445 194.744 468.677 196.024C467.909 197.304 467.205 198.488 466.565 199.576C465.925 200.664 465.508 201.4 465.316 201.784H471.652C471.844 201.784 471.94 201.848 471.94 201.976C471.94 202.232 471.781 202.52 471.461 202.84C471.205 203.16 470.949 203.32 470.693 203.32H464.453C463.301 205.304 461.924 207.896 460.324 211.096C458.788 214.232 457.413 217.272 456.197 220.216C455.941 220.792 455.493 221.944 454.853 223.672C454.277 225.4 453.988 227 453.988 228.472C453.988 229.432 454.18 230.232 454.564 230.872C455.012 231.512 455.748 231.832 456.772 231.832C457.86 231.832 459.044 231.448 460.324 230.68C461.604 229.848 462.597 229.016 463.301 228.184C464.773 226.584 466.116 224.824 467.332 222.904C468.548 220.984 469.764 218.936 470.98 216.76C471.172 216.504 471.364 216.376 471.556 216.376C471.812 216.376 471.94 216.568 471.94 216.952C471.94 217.272 471.877 217.528 471.749 217.72C470.597 219.832 469.348 221.944 468.004 224.056C466.724 226.168 465.157 228.152 463.301 230.008C462.469 230.84 461.348 231.608 459.94 232.312C458.532 232.952 457.156 233.272 455.812 233.272Z" fill="#BE2B2C"/>
<path d="M503.369 233.272C501.321 233.272 499.913 232.632 499.145 231.352C498.377 230.008 497.993 228.536 497.993 226.936C497.993 226.616 498.025 226.072 498.089 225.304C498.217 224.472 498.345 223.704 498.473 223C497.577 224.216 496.489 225.56 495.209 227.032C493.993 228.504 492.745 229.752 491.465 230.776C489.417 232.44 487.561 233.272 485.897 233.272C484.297 233.272 483.049 232.6 482.153 231.256C481.321 229.912 480.905 228.216 480.905 226.168C480.905 223.544 481.481 220.888 482.633 218.2C483.785 215.512 485.289 212.984 487.145 210.616C489.065 208.184 491.177 206.104 493.481 204.376C494.825 203.416 496.457 202.648 498.377 202.072C500.361 201.432 502.345 201.112 504.329 201.112C506.569 201.112 508.521 201.464 510.185 202.168C511.913 202.808 513.097 203.736 513.737 204.952C512.393 206.68 511.017 208.824 509.609 211.384C508.201 213.88 506.985 216.152 505.961 218.2C505.257 219.608 504.489 221.368 503.657 223.48C502.825 225.528 502.409 227.288 502.409 228.76C502.409 229.4 502.569 230.04 502.889 230.68C503.209 231.32 503.817 231.64 504.713 231.64C505.737 231.64 506.729 231.256 507.689 230.488C508.649 229.72 509.449 228.952 510.089 228.184C511.561 226.584 512.905 224.824 514.121 222.904C515.337 220.984 516.553 218.936 517.769 216.76C517.961 216.504 518.153 216.376 518.345 216.376C518.601 216.376 518.729 216.568 518.729 216.952C518.729 217.272 518.665 217.528 518.537 217.72C517.449 219.832 516.233 221.944 514.889 224.056C513.545 226.168 511.945 228.152 510.089 230.008C509.193 230.904 508.137 231.672 506.921 232.312C505.705 232.952 504.521 233.272 503.369 233.272ZM488.009 230.296C489.225 230.296 490.537 229.656 491.945 228.376C493.417 227.032 494.825 225.432 496.169 223.576C497.577 221.656 498.825 219.832 499.913 218.104C501.065 216.312 501.961 214.936 502.601 213.976C503.945 211.864 505.193 210.104 506.345 208.696C507.497 207.288 509.289 206.2 511.721 205.432C511.849 205.432 511.945 205.432 512.009 205.432C512.137 205.368 512.265 205.336 512.393 205.336C511.817 204.44 510.857 203.768 509.513 203.32C508.169 202.872 506.857 202.648 505.577 202.648C503.593 202.648 501.673 203.192 499.817 204.28C497.961 205.368 496.265 206.744 494.729 208.408C493.257 210.136 491.817 212.024 490.409 214.072C489.001 216.12 487.849 218.2 486.953 220.312C486.121 222.424 485.705 224.44 485.705 226.36C485.705 227.384 485.865 228.312 486.185 229.144C486.569 229.912 487.177 230.296 488.009 230.296ZM499.241 189.112C499.241 188.792 499.721 188.632 500.681 188.632C501.001 188.632 501.289 188.664 501.545 188.728C501.865 188.792 502.025 188.92 502.025 189.112C502.025 190.648 502.505 191.768 503.465 192.472C504.425 193.176 505.577 193.528 506.921 193.528C508.521 193.528 510.153 193.112 511.817 192.28C513.481 191.448 514.697 190.36 515.465 189.016C515.721 188.696 516.041 188.536 516.425 188.536C516.873 188.472 517.033 188.6 516.905 188.92C515.881 190.968 514.345 192.536 512.297 193.624C510.249 194.712 508.233 195.256 506.249 195.256C504.393 195.256 502.761 194.744 501.353 193.72C499.945 192.696 499.241 191.16 499.241 189.112Z" fill="#BE2B2C"/>
<path d="M533.554 233.272C531.954 233.272 530.514 232.824 529.234 231.928C528.018 230.968 527.41 229.432 527.41 227.32C527.41 225.08 527.954 222.616 529.042 219.928C530.13 217.24 531.154 214.84 532.114 212.728C532.626 211.704 533.298 210.328 534.13 208.6C535.026 206.808 535.986 205.048 537.01 203.32H532.498C532.306 203.32 532.21 203.16 532.21 202.84C532.21 202.584 532.306 202.328 532.498 202.072C532.69 201.752 532.914 201.592 533.17 201.592C534.962 201.592 536.306 201.432 537.202 201.112C538.098 200.792 538.866 200.344 539.506 199.768C540.53 198.872 541.522 197.72 542.482 196.312C543.506 194.904 544.498 193.688 545.458 192.664C546.162 191.768 547.026 191.096 548.05 190.648C549.138 190.2 549.842 190.04 550.162 190.168C549.842 190.616 549.33 191.384 548.626 192.472C547.922 193.56 547.186 194.744 546.418 196.024C545.65 197.304 544.946 198.488 544.306 199.576C543.666 200.664 543.25 201.4 543.058 201.784H549.394C549.586 201.784 549.682 201.848 549.682 201.976C549.682 202.232 549.522 202.52 549.202 202.84C548.946 203.16 548.69 203.32 548.434 203.32H542.194C541.042 205.304 539.666 207.896 538.066 211.096C536.53 214.232 535.154 217.272 533.938 220.216C533.682 220.792 533.234 221.944 532.594 223.672C532.018 225.4 531.73 227 531.73 228.472C531.73 229.432 531.922 230.232 532.306 230.872C532.754 231.512 533.49 231.832 534.514 231.832C535.602 231.832 536.786 231.448 538.066 230.68C539.346 229.848 540.338 229.016 541.042 228.184C542.514 226.584 543.858 224.824 545.074 222.904C546.29 220.984 547.506 218.936 548.722 216.76C548.914 216.504 549.106 216.376 549.298 216.376C549.554 216.376 549.682 216.568 549.682 216.952C549.682 217.272 549.618 217.528 549.49 217.72C548.338 219.832 547.09 221.944 545.746 224.056C544.466 226.168 542.898 228.152 541.042 230.008C540.21 230.84 539.09 231.608 537.682 232.312C536.274 232.952 534.898 233.272 533.554 233.272Z" fill="#BE2B2C"/>
<path d="M535.961 251.896C535.321 251.896 535 251.672 535 251.224C535 250.84 535.256 250.648 535.768 250.648C537.496 250.328 538.937 249.464 540.089 248.056C541.305 246.712 542.168 245.592 542.68 244.696H542.297C541.721 244.696 541.208 244.504 540.76 244.12C540.376 243.8 540.185 243.32 540.185 242.68C540.185 241.912 540.473 241.208 541.049 240.568C541.625 239.992 542.297 239.704 543.065 239.704C544.537 239.704 545.273 240.472 545.273 242.008C545.273 242.776 544.856 243.896 544.024 245.368C543.256 246.84 542.168 248.216 540.76 249.496C539.416 250.776 537.817 251.576 535.961 251.896Z" fill="#BE2B2C"/>
<path d="M575.831 233.176C574.039 233.176 572.726 232.6 571.894 231.448C571.062 230.232 570.646 228.76 570.646 227.032C570.646 226.52 570.678 226.008 570.742 225.496C570.87 224.92 570.998 224.344 571.126 223.768C571.83 221.208 572.919 218.36 574.391 215.224C575.927 212.024 577.398 209.176 578.806 206.68C579.638 205.272 580.406 204.28 581.11 203.704C581.814 203.064 582.582 202.616 583.414 202.36C584.246 202.04 585.239 201.688 586.391 201.304C586.711 201.176 587.03 201.08 587.35 201.016C587.67 200.952 588.022 200.888 588.406 200.824C587.126 202.104 585.814 203.64 584.47 205.432C583.19 207.224 581.782 209.688 580.246 212.824C579.414 214.488 578.582 216.344 577.75 218.392C576.982 220.44 576.31 222.36 575.734 224.152C575.158 225.944 574.838 227.352 574.774 228.376C574.71 229.592 574.87 230.456 575.254 230.968C575.638 231.48 576.15 231.736 576.79 231.736C577.878 231.736 578.902 231.352 579.862 230.584C580.886 229.816 581.782 229.016 582.55 228.184C583.958 226.584 585.271 224.824 586.487 222.904C587.767 220.984 589.014 218.936 590.23 216.76C590.422 216.504 590.583 216.376 590.711 216.376C590.967 216.376 591.094 216.568 591.094 216.952C591.094 217.272 591.03 217.528 590.902 217.72C589.75 219.832 588.534 221.944 587.254 224.056C585.974 226.168 584.406 228.152 582.55 230.008C581.718 230.84 580.726 231.576 579.574 232.216C578.486 232.856 577.239 233.176 575.831 233.176ZM587.542 195.448C586.838 195.448 586.231 195.192 585.719 194.68C585.271 194.168 585.047 193.56 585.047 192.856C585.047 191.96 585.398 191.16 586.102 190.456C586.87 189.752 587.703 189.336 588.599 189.208C589.303 189.208 589.878 189.464 590.326 189.976C590.838 190.424 591.094 191.032 591.094 191.8C591.094 192.632 590.742 193.464 590.038 194.296C589.334 195.064 588.502 195.448 587.542 195.448Z" fill="#BE2B2C"/>
</svg>
