<svg width="478" height="74" viewBox="0 0 478 74" fill="none" xmlns="http://www.w3.org/2000/svg">
<path d="M9.31818 2.18182L30.0455 60.9545H30.8636L51.5909 2.18182H60.4545L34.8182 72H26.0909L0.454546 2.18182H9.31818Z" fill="#A87471"/>
<path d="M80.7727 73.2273C77.4545 73.2273 74.4432 72.6023 71.7386 71.3523C69.0341 70.0795 66.8864 68.25 65.2955 65.8636C63.7045 63.4545 62.9091 60.5455 62.9091 57.1364C62.9091 54.1364 63.5 51.7045 64.6818 49.8409C65.8636 47.9545 67.4432 46.4773 69.4205 45.4091C71.3977 44.3409 73.5795 43.5455 75.9659 43.0227C78.375 42.4773 80.7955 42.0455 83.2273 41.7273C86.4091 41.3182 88.9886 41.0114 90.9659 40.8068C92.9659 40.5795 94.4205 40.2045 95.3295 39.6818C96.2614 39.1591 96.7273 38.25 96.7273 36.9545V36.6818C96.7273 33.3182 95.8068 30.7045 93.9659 28.8409C92.1477 26.9773 89.3864 26.0455 85.6818 26.0455C81.8409 26.0455 78.8295 26.8864 76.6477 28.5682C74.4659 30.25 72.9318 32.0455 72.0455 33.9545L64.4091 31.2273C65.7727 28.0455 67.5909 25.5682 69.8636 23.7955C72.1591 22 74.6591 20.75 77.3636 20.0455C80.0909 19.3182 82.7727 18.9545 85.4091 18.9545C87.0909 18.9545 89.0227 19.1591 91.2045 19.5682C93.4091 19.9545 95.5341 20.7614 97.5795 21.9886C99.6477 23.2159 101.364 25.0682 102.727 27.5455C104.091 30.0227 104.773 33.3409 104.773 37.5V72H96.7273V64.9091H96.3182C95.7727 66.0455 94.8636 67.2614 93.5909 68.5568C92.3182 69.8523 90.625 70.9545 88.5114 71.8636C86.3977 72.7727 83.8182 73.2273 80.7727 73.2273ZM82 66C85.1818 66 87.8636 65.375 90.0455 64.125C92.25 62.875 93.9091 61.2614 95.0227 59.2841C96.1591 57.3068 96.7273 55.2273 96.7273 53.0455V45.6818C96.3864 46.0909 95.6364 46.4659 94.4773 46.8068C93.3409 47.125 92.0227 47.4091 90.5227 47.6591C89.0455 47.8864 87.6023 48.0909 86.1932 48.2727C84.8068 48.4318 83.6818 48.5682 82.8182 48.6818C80.7273 48.9545 78.7727 49.3977 76.9545 50.0114C75.1591 50.6023 73.7045 51.5 72.5909 52.7045C71.5 53.8864 70.9545 55.5 70.9545 57.5455C70.9545 60.3409 71.9886 62.4545 74.0568 63.8864C76.1477 65.2955 78.7955 66 82 66ZM92.6364 2.18182H100.136C100.136 5.86364 98.8636 8.875 96.3182 11.2159C93.7727 13.5568 90.3182 14.7273 85.9545 14.7273C81.6591 14.7273 78.2386 13.5568 75.6932 11.2159C73.1705 8.875 71.9091 5.86364 71.9091 2.18182H79.4091C79.4091 3.95454 79.8977 5.51136 80.875 6.85227C81.875 8.19318 83.5682 8.86363 85.9545 8.86363C88.3409 8.86363 90.0455 8.19318 91.0682 6.85227C92.1136 5.51136 92.6364 3.95454 92.6364 2.18182Z" fill="#A87471"/>
<path d="M146.457 72V19.6364H154.503V72H146.457ZM150.548 10.9091C148.98 10.9091 147.628 10.375 146.491 9.30682C145.378 8.23864 144.821 6.95455 144.821 5.45455C144.821 3.95455 145.378 2.67045 146.491 1.60227C147.628 0.53409 148.98 0 150.548 0C152.116 0 153.457 0.53409 154.571 1.60227C155.707 2.67045 156.276 3.95455 156.276 5.45455C156.276 6.95455 155.707 8.23864 154.571 9.30682C153.457 10.375 152.116 10.9091 150.548 10.9091Z" fill="#A87471"/>
<path d="M177.284 40.5V72H169.239V19.6364H177.011V27.8182H177.693C178.92 25.1591 180.784 23.0227 183.284 21.4091C185.784 19.7727 189.011 18.9545 192.966 18.9545C196.511 18.9545 199.614 19.6818 202.273 21.1364C204.932 22.5682 207 24.75 208.477 27.6818C209.955 30.5909 210.693 34.2727 210.693 38.7273V72H202.648V39.2727C202.648 35.1591 201.58 31.9545 199.443 29.6591C197.307 27.3409 194.375 26.1818 190.648 26.1818C188.08 26.1818 185.784 26.7386 183.761 27.8523C181.761 28.9659 180.182 30.5909 179.023 32.7273C177.864 34.8636 177.284 37.4545 177.284 40.5Z" fill="#A87471"/>
<path d="M266.338 19.6364L246.974 72H238.793L219.429 19.6364H228.156L242.611 61.3636H243.156L257.611 19.6364H266.338Z" fill="#A87471"/>
<path d="M276.957 72V19.6364H285.003V72H276.957ZM281.048 10.9091C279.48 10.9091 278.128 10.375 276.991 9.30682C275.878 8.23864 275.321 6.95455 275.321 5.45455C275.321 3.95455 275.878 2.67045 276.991 1.60227C278.128 0.53409 279.48 0 281.048 0C282.616 0 283.957 0.53409 285.071 1.60227C286.207 2.67045 286.776 3.95455 286.776 5.45455C286.776 6.95455 286.207 8.23864 285.071 9.30682C283.957 10.375 282.616 10.9091 281.048 10.9091Z" fill="#A87471"/>
<path d="M322.511 19.6364V26.4545H295.375V19.6364H322.511ZM303.284 7.09091H311.33V57C311.33 59.2727 311.659 60.9773 312.318 62.1136C313 63.2273 313.864 63.9773 314.909 64.3636C315.977 64.7273 317.102 64.9091 318.284 64.9091C319.17 64.9091 319.898 64.8636 320.466 64.7727C321.034 64.6591 321.489 64.5682 321.83 64.5L323.466 71.7273C322.92 71.9318 322.159 72.1364 321.182 72.3409C320.205 72.5682 318.966 72.6818 317.466 72.6818C315.193 72.6818 312.966 72.1932 310.784 71.2159C308.625 70.2386 306.83 68.75 305.398 66.75C303.989 64.75 303.284 62.2273 303.284 59.1818V7.09091Z" fill="#A87471"/>
<path d="M350.023 73.2273C346.705 73.2273 343.693 72.6023 340.989 71.3523C338.284 70.0795 336.136 68.25 334.545 65.8636C332.955 63.4545 332.159 60.5455 332.159 57.1364C332.159 54.1364 332.75 51.7045 333.932 49.8409C335.114 47.9545 336.693 46.4773 338.67 45.4091C340.648 44.3409 342.83 43.5455 345.216 43.0227C347.625 42.4773 350.045 42.0455 352.477 41.7273C355.659 41.3182 358.239 41.0114 360.216 40.8068C362.216 40.5795 363.67 40.2045 364.58 39.6818C365.511 39.1591 365.977 38.25 365.977 36.9545V36.6818C365.977 33.3182 365.057 30.7045 363.216 28.8409C361.398 26.9773 358.636 26.0455 354.932 26.0455C351.091 26.0455 348.08 26.8864 345.898 28.5682C343.716 30.25 342.182 32.0455 341.295 33.9545L333.659 31.2273C335.023 28.0455 336.841 25.5682 339.114 23.7955C341.409 22 343.909 20.75 346.614 20.0455C349.341 19.3182 352.023 18.9545 354.659 18.9545C356.341 18.9545 358.273 19.1591 360.455 19.5682C362.659 19.9545 364.784 20.7614 366.83 21.9886C368.898 23.2159 370.614 25.0682 371.977 27.5455C373.341 30.0227 374.023 33.3409 374.023 37.5V72H365.977V64.9091H365.568C365.023 66.0455 364.114 67.2614 362.841 68.5568C361.568 69.8523 359.875 70.9545 357.761 71.8636C355.648 72.7727 353.068 73.2273 350.023 73.2273ZM351.25 66C354.432 66 357.114 65.375 359.295 64.125C361.5 62.875 363.159 61.2614 364.273 59.2841C365.409 57.3068 365.977 55.2273 365.977 53.0455V45.6818C365.636 46.0909 364.886 46.4659 363.727 46.8068C362.591 47.125 361.273 47.4091 359.773 47.6591C358.295 47.8864 356.852 48.0909 355.443 48.2727C354.057 48.4318 352.932 48.5682 352.068 48.6818C349.977 48.9545 348.023 49.3977 346.205 50.0114C344.409 50.6023 342.955 51.5 341.841 52.7045C340.75 53.8864 340.205 55.5 340.205 57.5455C340.205 60.3409 341.239 62.4545 343.307 63.8864C345.398 65.2955 348.045 66 351.25 66ZM361.886 2.18182H369.386C369.386 5.86364 368.114 8.875 365.568 11.2159C363.023 13.5568 359.568 14.7273 355.205 14.7273C350.909 14.7273 347.489 13.5568 344.943 11.2159C342.42 8.875 341.159 5.86364 341.159 2.18182H348.659C348.659 3.95454 349.148 5.51136 350.125 6.85227C351.125 8.19318 352.818 8.86363 355.205 8.86363C357.591 8.86363 359.295 8.19318 360.318 6.85227C361.364 5.51136 361.886 3.95454 361.886 2.18182Z" fill="#A87471"/>
<path d="M423.753 2.18182V72H415.707V2.18182H423.753Z" fill="#A87471"/>
<path d="M453.898 73.2273C450.58 73.2273 447.568 72.6023 444.864 71.3523C442.159 70.0795 440.011 68.25 438.42 65.8636C436.83 63.4545 436.034 60.5455 436.034 57.1364C436.034 54.1364 436.625 51.7045 437.807 49.8409C438.989 47.9545 440.568 46.4773 442.545 45.4091C444.523 44.3409 446.705 43.5455 449.091 43.0227C451.5 42.4773 453.92 42.0455 456.352 41.7273C459.534 41.3182 462.114 41.0114 464.091 40.8068C466.091 40.5795 467.545 40.2045 468.455 39.6818C469.386 39.1591 469.852 38.25 469.852 36.9545V36.6818C469.852 33.3182 468.932 30.7045 467.091 28.8409C465.273 26.9773 462.511 26.0455 458.807 26.0455C454.966 26.0455 451.955 26.8864 449.773 28.5682C447.591 30.25 446.057 32.0455 445.17 33.9545L437.534 31.2273C438.898 28.0455 440.716 25.5682 442.989 23.7955C445.284 22 447.784 20.75 450.489 20.0455C453.216 19.3182 455.898 18.9545 458.534 18.9545C460.216 18.9545 462.148 19.1591 464.33 19.5682C466.534 19.9545 468.659 20.7614 470.705 21.9886C472.773 23.2159 474.489 25.0682 475.852 27.5455C477.216 30.0227 477.898 33.3409 477.898 37.5V72H469.852V64.9091H469.443C468.898 66.0455 467.989 67.2614 466.716 68.5568C465.443 69.8523 463.75 70.9545 461.636 71.8636C459.523 72.7727 456.943 73.2273 453.898 73.2273ZM455.125 66C458.307 66 460.989 65.375 463.17 64.125C465.375 62.875 467.034 61.2614 468.148 59.2841C469.284 57.3068 469.852 55.2273 469.852 53.0455V45.6818C469.511 46.0909 468.761 46.4659 467.602 46.8068C466.466 47.125 465.148 47.4091 463.648 47.6591C462.17 47.8864 460.727 48.0909 459.318 48.2727C457.932 48.4318 456.807 48.5682 455.943 48.6818C453.852 48.9545 451.898 49.3977 450.08 50.0114C448.284 50.6023 446.83 51.5 445.716 52.7045C444.625 53.8864 444.08 55.5 444.08 57.5455C444.08 60.3409 445.114 62.4545 447.182 63.8864C449.273 65.2955 451.92 66 455.125 66Z" fill="#A87471"/>
</svg>
